HIERARCHY
ROOT hip
{
	OFFSET 0.000000 0.000000 0.000000 
	CHANNELS 6 Xposition Yposition Zposition Xrotation Zrotation Yrotation
	JOINT abdomen
	{
		OFFSET 0.000000 3.402643 0.000000 
		CHANNELS 3 Xrotation Zrotation Yrotation
		JOINT chest
		{
			OFFSET 0.000000 8.438565 -0.680529 
			CHANNELS 3 Xrotation Zrotation Yrotation
			JOINT neck
			{
				OFFSET 0.000000 10.207942 -0.272212 
				CHANNELS 3 Xrotation Zrotation Yrotation
				JOINT head
				{
					OFFSET 0.000000 3.130431 0.000000 
					CHANNELS 3 Xrotation Zrotation Yrotation
					End Site
					{
						OFFSET 0.000000 3.130435 0.000000 
					}
				}
			}
			JOINT lCollar
			{
				OFFSET 3.470700 6.669187 -0.816635 
				CHANNELS 3 Yrotation Zrotation Xrotation
				JOINT lShldr
				{
					OFFSET 3.198488 0.000000 0.000000 
					CHANNELS 3 Zrotation Yrotation Xrotation
					JOINT lForeArm
					{
						OFFSET 10.139888 0.000000 0.000000 
						CHANNELS 3 Yrotation Zrotation Xrotation
						JOINT lHand
						{
							OFFSET 8.370511 0.000000 0.000000 
							CHANNELS 3 Zrotation Yrotation Xrotation
							End Site
							{
								OFFSET 4.083176 0.000000 0.000000 
							}
						}
					}
				}
			}
			JOINT rCollar
			{
				OFFSET -3.470700 6.669187 -0.816635 
				CHANNELS 3 Yrotation Zrotation Xrotation
				JOINT rShldr
				{
					OFFSET -3.198488 0.000000 0.000000 
					CHANNELS 3 Zrotation Yrotation Xrotation
					JOINT rForeArm
					{
						OFFSET -10.139888 0.000000 0.000000 
						CHANNELS 3 Yrotation Zrotation Xrotation
						JOINT rHand
						{
							OFFSET -8.370511 0.000000 0.000000 
							CHANNELS 3 Zrotation Yrotation Xrotation
							End Site
							{
								OFFSET -4.083176 0.000000 0.000000 
							}
						}
					}
				}
			}
		}
	}
	JOINT lThigh
	{
		OFFSET 5.308129 -1.633274 1.361059 
		CHANNELS 3 Xrotation Zrotation Yrotation
		JOINT lShin
		{
			OFFSET -2.041588 -20.007561 0.000000 
			CHANNELS 3 Xrotation Zrotation Yrotation
			JOINT lFoot
			{
				OFFSET 0.000000 -19.190928 -1.224953 
				CHANNELS 3 Xrotation Yrotation Zrotation
				End Site
				{
					OFFSET 0.000000 -2.449906 4.627600 
				}
			}
		}
	}
	JOINT rThigh
	{
		OFFSET -5.308129 -1.633274 1.361059 
		CHANNELS 3 Xrotation Zrotation Yrotation
		JOINT rShin
		{
			OFFSET 2.041588 -20.007561 0.000000 
			CHANNELS 3 Xrotation Zrotation Yrotation
			JOINT rFoot
			{
				OFFSET 0.000000 -19.190928 -1.224953 
				CHANNELS 3 Xrotation Yrotation Zrotation
				End Site
				{
					OFFSET 0.000000 -2.449906 4.627600 
				}
			}
		}
	}
}
MOTION
Frames: 13
Frame Time: 0.016667
-0.343329 49.575970 0.293317 -7.112408 -20.859682 -59.108524 35.778141 10.468995 3.953278 4.443373 3.943575 -2.727973 3.823819 -2.552167 -0.157551 10.309895 -16.190388 42.308552 -6.748333 -13.919145 -0.731250 -34.625721 -13.940701 -1.103726 -106.356354 5.000000 6.013162 -15.738563 -19.696781 -16.765867 6.850633 3.737779 -0.191371 68.424789 37.825573 39.319321 121.005554 -5.000000 5.348868 28.148159 -16.076126 2.233116 -1.757909 28.788315 7.479707 29.596539 -3.401217 -2.036694 0.111613 -4.562949 -14.401817 28.978136 -8.456582 -11.031711 28.332369 2.555789 1.429093 -27.839045 -13.965008 9.910576 
-0.335606 49.577511 0.294654 -7.128570 -20.854588 -59.071091 35.790340 10.505916 3.969955 4.472290 4.002183 -2.709160 3.796858 -2.751114 -0.166927 10.289279 -16.262529 42.390354 -6.749365 -13.997158 -0.735280 -34.622917 -13.962017 -1.099859 -106.306740 5.000000 6.004053 -15.769141 -19.788664 -16.745258 6.782044 3.669511 -0.187838 68.485832 37.902004 39.421234 120.978699 -5.000000 5.365518 28.045263 -16.042007 2.050505 -1.748861 28.766479 7.520345 29.528837 -3.390659 -2.029227 0.118873 -4.664000 -14.355483 28.998402 -8.466009 -11.105313 28.321550 2.551024 1.466226 -27.808054 -13.964967 9.925426 
-0.327884 49.579044 0.295990 -7.144717 -20.849451 -59.030163 35.792782 10.542837 3.988414 4.501532 4.051030 -2.679911 3.760267 -2.940403 -0.178250 10.268427 -16.334463 42.472233 -6.760039 -14.065419 -0.738805 -34.620110 -13.983336 -1.095990 -106.246834 5.000000 5.991393 -15.796348 -19.883167 -16.733358 6.723258 3.610996 -0.184809 68.543930 37.978573 39.534691 120.942368 -5.000000 5.373831 27.937878 -16.009430 1.889171 -1.748997 28.753754 7.559440 29.502695 -3.361670 -2.010975 0.099689 -4.772683 -14.314591 29.002483 -8.456908 -11.142076 28.312965 2.536133 1.462162 -27.737671 -14.003418 9.962882 
-0.322715 49.581814 0.293702 -7.146268 -20.829233 -58.993614 35.765659 10.546402 4.007362 4.501658 4.070573 -2.670170 3.790245 -2.999794 -0.179138 10.250584 -16.336678 42.525852 -6.770196 -14.094676 -0.740316 -34.592426 -13.977225 -1.095409 -106.246429 5.000000 5.976180 -15.804131 -19.900732 -16.714069 6.713971 3.570844 -0.192470 68.565720 37.986877 39.533909 120.942871 -5.000000 5.346616 27.898930 -15.947793 1.792082 -1.767828 28.739609 7.594707 29.472218 -3.371315 -2.010642 0.023580 -4.817210 -14.327840 28.975203 -8.446474 -11.149121 28.304216 2.536196 1.432414 -27.722418 -13.982795 9.991524 
-0.318184 49.584885 0.290507 -7.144591 -20.804003 -58.964928 35.736996 10.543962 4.014426 4.501658 4.070573 -2.679935 3.829369 -3.019106 -0.176219 10.240849 -16.314842 42.583038 -6.780222 -14.114180 -0.741323 -34.554520 -13.978820 -1.091425 -106.265877 5.000000 5.959033 -15.821508 -19.904261 -16.677347 6.713871 3.541586 -0.190956 68.587418 37.958435 39.507996 120.942078 -5.000000 5.309438 27.863455 -15.874758 1.731395 -1.816877 28.733816 7.614805 29.454205 -3.352006 -2.014866 -0.017461 -4.862845 -14.369070 28.960634 -8.427277 -11.152073 28.284948 2.536402 1.421506 -27.714809 -14.013309 9.983376 
-0.313655 49.587345 0.287312 -7.125804 -20.793858 -58.946655 35.718098 10.541517 4.021494 4.492176 4.060812 -2.679935 3.859206 -3.030219 -0.184402 10.236890 -16.307371 42.642971 -6.770457 -14.114180 -0.741323 -34.524334 -13.978260 -1.098502 -106.285057 5.000000 5.948164 -15.803388 -19.867065 -16.685854 6.733305 3.512325 -0.189441 68.612137 37.929741 39.470711 120.932198 -5.000000 5.291841 27.847729 -15.846507 1.686903 -1.846254 28.739868 7.629622 29.445431 -3.351861 -1.985001 0.047349 -4.885294 -14.372239 28.970421 -8.397919 -11.172417 28.257515 2.512229 1.414073 -27.738024 -13.998722 9.943720 
-0.309126 49.588879 0.284119 -7.101338 -20.808891 -58.942257 35.720650 10.578077 4.038767 4.492741 4.041289 -2.669482 3.878706 -3.020563 -0.185862 10.284524 -16.302317 42.693825 -6.741029 -14.104428 -0.740819 -34.504051 -13.985778 -1.097473 -106.325470 5.000000 5.953111 -15.732769 -19.774755 -16.746330 6.782003 3.473306 -0.187422 68.649498 37.894611 39.434063 120.920578 -5.000000 5.291495 27.849148 -15.876054 1.659578 -1.855968 28.788738 7.620461 29.432566 -3.371183 -2.017529 0.341334 -4.916545 -14.388637 28.960022 -8.368481 -11.202664 28.249275 2.492921 1.409005 -27.734329 -13.973690 9.962391 
-0.304598 49.590420 0.280928 -7.067104 -20.823935 -58.941341 35.721554 10.608992 4.043538 4.483540 4.021765 -2.669485 3.888441 -3.010907 -0.187321 10.322395 -16.297241 42.744675 -6.701836 -14.094675 -0.740316 -34.486282 -13.987764 -1.088779 -106.363846 5.000000 5.955998 -15.672252 -19.685150 -16.806602 6.830121 3.435449 -0.175723 68.690239 37.862717 39.406239 120.908310 -5.000000 5.286172 27.850840 -15.897071 1.637011 -1.875754 28.815826 7.628156 29.431883 -3.371126 -2.036937 0.610618 -4.925108 -14.356954 28.942369 -8.329809 -11.239559 28.250448 2.478241 1.405621 -27.720047 -13.944334 9.936907 
-0.302056 49.590420 0.278614 -7.079315 -20.839045 -58.951767 35.723309 10.581302 4.054455 4.476667 3.992540 -2.630497 3.915878 -2.890667 -0.175410 10.362741 -16.280447 42.751015 -6.742938 -14.064275 -0.748213 -34.458752 -13.973778 -1.093925 -106.407036 5.000000 5.999947 -15.754163 -19.632395 -16.805370 6.821098 3.483052 -0.187926 68.626625 37.814705 39.348274 120.934044 -5.000000 5.291747 27.792147 -15.899367 1.640006 -1.845893 28.827831 7.634372 29.430876 -3.380845 -2.039282 0.496441 -4.930428 -14.348717 28.955402 -8.319571 -11.226811 28.240654 2.478223 1.405002 -27.710224 -13.985387 9.944407 
-0.299513 49.590420 0.276302 -7.085768 -20.864164 -58.954342 35.742779 10.548288 4.050305 4.470037 3.953550 -2.581743 3.943866 -2.771883 -0.173651 10.409996 -16.256487 42.757355 -6.781605 -14.035012 -0.746703 -34.431377 -13.951888 -1.104795 -106.458557 5.000000 6.039069 -15.845967 -19.582493 -16.804293 6.801763 3.541571 -0.190954 68.566292 37.769779 39.299332 120.970490 -5.000000 5.299459 27.733454 -15.901672 1.643008 -1.807280 28.831486 7.632099 29.418280 -3.410684 -2.036072 0.379483 -4.888639 -14.323041 28.980019 -8.339170 -11.223063 28.229322 2.492860 1.417473 -27.654236 -13.961704 9.967083 
-0.296444 49.591339 0.275184 -7.087388 -20.874237 -58.961300 35.744408 10.519608 4.070663 4.433132 3.924301 -2.542727 4.001195 -2.653099 -0.171886 10.463826 -16.211166 42.722820 -6.849307 -13.986242 -0.744185 -34.431778 -13.905886 -1.091286 -106.502396 5.000000 6.064054 -15.943084 -19.575750 -16.794676 6.811117 3.601243 -0.184305 68.470871 37.703606 39.210094 121.008415 -5.000000 5.295453 27.965221 -15.725047 1.811972 -1.787336 28.843437 7.626517 29.415552 -3.430069 -2.060171 0.398459 -4.861691 -14.311317 29.000174 -8.339250 -11.213154 28.219173 2.492818 1.426561 -27.654488 -13.960840 9.967652 
-0.293023 49.592880 0.274857 -7.085805 -20.879328 -58.976109 35.732597 10.490232 4.079438 4.377341 3.895069 -2.483537 4.087865 -2.534314 -0.170118 10.508980 -16.144268 42.682892 -6.936412 -13.927715 -0.741163 -34.454887 -13.846820 -1.068807 -106.536392 5.000000 6.079189 -16.048353 -19.603458 -16.779932 6.821140 3.679264 -0.188343 68.353271 37.637589 39.114342 121.059517 -5.000000 5.296182 28.400108 -15.420139 2.082273 -1.797216 28.853233 7.615245 29.393866 -3.449238 -2.062799 0.496556 -4.876493 -14.297625 28.991892 -8.329965 -11.189736 28.239103 2.497531 1.409450 -27.672890 -13.970387 9.970687 
-0.289997 49.593796 0.274711 -7.083410 -20.879381 -58.987438 35.732037 10.467876 4.090489 4.321260 3.875599 -2.425014 4.164897 -2.444496 -0.163965 10.552761 -16.094080 42.639359 -7.013886 -13.878943 -0.738644 -34.485523 -13.793448 -1.054045 -106.560120 5.000000 6.087638 -16.131569 -19.640215 -16.758944 6.841466 3.726863 -0.200542 68.257828 37.571018 39.025841 121.091019 -5.000000 5.293917 28.838516 -15.141106 2.334623 -1.797195 28.853973 7.605337 29.402662 -3.458984 -2.065853 0.564868 -4.859029 -14.285148 28.960440 -8.329780 -11.169528 28.248899 2.497546 1.410070 -27.659239 -13.983931 9.973532 
